<svg height="512pt" viewBox="0 0 512 512" width="512pt" xmlns="http://www.w3.org/2000/svg"><path d="m511.902344 255.5625-68.960938-44.574219 68.929688-45.148437-255.742188-165.839844-255.929687 165.839844 69.15625 45.265625-69.2578128 44.414062 69.2578128 45.332031-69.355469 44.476563 256.128906 165.96875 255.871094-165.925781-69.058594-44.636719zm-255.777344-219.910156 200.957031 130.3125-200.957031 131.632812-201.109375-131.632812zm-159.34375 193.40625 159.347656 104.296875 159.445313-104.4375 41.476562 26.8125-200.925781 131.613281-201.011719-131.566406zm360.171875 116.355468-200.828125 130.230469-200.914062-130.1875 41.570312-26.65625 159.347656 104.300781 159.445313-104.4375zm0 0"/></svg>